<?xml version="1.0" encoding="UTF-8"?>
<svg id="Layer_1" data-name="Layer 1" xmlns="http://www.w3.org/2000/svg" viewBox="0 0 285.72 89.76">
  <defs>
    <style>
      .cls-1 {
        fill: #001140;
      }

      .cls-2 {
        fill: #2059ef;
      }
    </style>
  </defs>
  <g>
    <path class="cls-2" d="M35.76,68.52c4.8-.52,8.43-4.18,8.85-8.95,.45-5.1-1.01-9.45-5.52-12.3-4.72-2.98-9.59-3.16-14.42-.2-9.57,5.85-12.03,18.9-5.2,27.68,3.78,4.85,9,6.69,14.93,6.36,10.47-.57,19.49-7.66,22.52-17.4,3.43-11.04-1.84-23.09-12.45-28.49-11.95-6.07-27.49-2.3-36,8.78-1.07,1.4-2.26,2.48-4.11,2.44-1.7-.03-3.04-.8-3.82-2.33-.85-1.67-.72-3.34,.45-4.83,3.81-4.9,8.37-8.97,14-11.65,1.64-.78,2.24-1.66,2.07-3.41-.16-1.7-.05-3.43-.03-5.14,.02-1.54,.63-2.03,2.13-1.7,4.06,.91,8.1,1.92,12.18,2.74,1.31,.26,2.75,.28,4.05,.02,3.89-.78,7.74-1.74,11.6-2.64,2.33-.54,2.77-.2,2.77,2.24,0,2.4,.04,4.81-.02,7.21-.02,.89,.27,1.41,1.03,1.89,9.38,5.82,15,14.15,16.03,25.18,.95,10.18-2.53,18.98-9.9,25.99-8.58,8.16-18.82,11.52-30.55,8.83-12.09-2.77-20.38-13.89-19.71-26.33,.63-11.64,6.35-20.11,17.1-24.58,12.56-5.21,26.86,2.8,29.16,16.02,1.5,8.63-3.6,19.59-15.61,21.95-1.75,.34-3.6,.42-5.39,.33-3.06-.15-5.13-2.24-5.18-5.32-.09-5.78-.09-11.57,0-17.35,.04-2.75,2-4.5,4.63-4.45,2.55,.05,4.36,1.96,4.37,4.73,.03,4.85,0,9.7,0,14.67Z"/>
    <path class="cls-2" d="M33.26,18.2c-2.02-.44-4.27-.92-6.5-1.43-8.01-1.84-16.01-3.7-24.02-5.55-.33-.08-.66-.17-1-.24-1.07-.22-1.65-.95-1.64-1.97,0-1.02,.61-1.7,1.67-1.94,2.91-.66,5.82-1.35,8.72-2.02C17.55,3.43,24.59,1.77,31.66,.21c1.16-.26,2.47-.29,3.63-.03,9.74,2.17,19.46,4.43,29.18,6.68,.65,.15,1.42,.34,1.84,.79,.4,.42,.69,1.31,.51,1.8-.23,.62-.92,1.32-1.54,1.48-4.03,1.03-8.08,1.94-12.13,2.87-5.81,1.34-11.63,2.68-17.45,4.01-.71,.16-1.44,.23-2.43,.39Z"/>
  </g>
  <path class="cls-1" d="M81.09,77.18l19.19-49.97c.73-1.86,2.03-2.75,3.97-2.75h5.26c1.94,0,3.24,.89,3.97,2.75l19.44,49.97c.89,2.35-.16,3.97-2.67,3.97h-3.89c-2.02,0-3.32-.89-4.05-2.75l-3.16-8.34h-24.46l-3.16,8.34c-.65,1.86-1.94,2.75-3.89,2.75h-3.89c-2.51,0-3.56-1.62-2.67-3.97Zm35.55-15.63l-9.72-26.32-9.72,26.32h19.44Z"/>
  <path class="cls-1" d="M136.86,27.91c0-3.4,2.51-6.07,6.56-6.07s6.64,2.67,6.64,6.07-2.67,6.07-6.64,6.07-6.56-2.67-6.56-6.07Zm1.38,49.89V43.54c0-2.19,1.21-3.48,3.4-3.48h3.64c2.19,0,3.4,1.3,3.4,3.48v34.26c0,2.19-1.21,3.4-3.4,3.4h-3.64c-2.19,0-3.4-1.21-3.4-3.4Z"/>
  <path class="cls-1" d="M167.36,33.44v15.55h19.76c2.19,0,3.48,1.21,3.48,3.4v1.62c0,2.19-1.3,3.48-3.48,3.48h-19.76v14.66h23.24c2.19,0,3.4,1.3,3.4,3.48v2.11c0,2.19-1.21,3.4-3.4,3.4h-30.53c-2.19,0-3.4-1.21-3.4-3.4V27.86c0-2.19,1.21-3.4,3.4-3.4h30.53c2.19,0,3.4,1.21,3.4,3.4v2.11c0,2.19-1.21,3.48-3.4,3.48h-23.24Z"/>
  <path class="cls-1" d="M198.4,60.57c0-11.99,8.1-21.46,20-21.46,5.51,0,10.53,2.02,13.93,7.05V25.99c0-2.19,1.3-3.4,3.48-3.4h3.56c2.19,0,3.4,1.21,3.4,3.4v51.75c0,2.19-1.21,3.4-3.4,3.4h-3.56c-2.19,0-3.48-1.21-3.48-3.4v-2.75c-3.4,5.02-8.42,7.05-13.93,7.05-11.91,0-20-9.48-20-21.46Zm34.18,0c-.08-7.37-4.94-12.8-12.15-12.8s-11.58,5.83-11.58,12.8,4.21,12.8,11.58,12.8,12.07-5.43,12.15-12.8Z"/>
  <path class="cls-1" d="M246.85,63.49v-20c0-2.19,1.3-3.48,3.48-3.48h3.56c2.19,0,3.4,1.3,3.4,3.48v19.52c0,7.05,3.08,10.28,7.37,10.28s10.61-3.16,10.61-13.12v-16.68c0-2.19,1.3-3.48,3.48-3.48h3.56c2.19,0,3.4,1.3,3.4,3.48v34.26c0,2.19-1.21,3.4-3.4,3.4h-3.56c-2.19,0-3.48-1.21-3.48-3.4v-3.89c-1.86,5.18-6.72,8.18-13.04,8.18-10.04,0-15.39-7.29-15.39-18.55Z"/>
</svg>